<svg width="22" height="22" viewBox="0 0 22 22" fill="none" xmlns="http://www.w3.org/2000/svg">
<path d="M21.0625 9.25H12.75V0.9375C12.75 0.696875 12.5531 0.5 12.3125 0.5H9.6875C9.44687 0.5 9.25 0.696875 9.25 0.9375V9.25H0.9375C0.696875 9.25 0.5 9.44687 0.5 9.6875V12.3125C0.5 12.5531 0.696875 12.75 0.9375 12.75H9.25V21.0625C9.25 21.3031 9.44687 21.5 9.6875 21.5H12.3125C12.5531 21.5 12.75 21.3031 12.75 21.0625V12.75H21.0625C21.3031 12.75 21.5 12.5531 21.5 12.3125V9.6875C21.5 9.44687 21.3031 9.25 21.0625 9.25Z" fill="#233AB3" fill-opacity="0.8"/>
</svg>
